<mxfile host="65bd71144e">
    <diagram id="SeHnJ8ty2UcpxS8pFyar" name="Page-1">
        <mxGraphModel dx="862" dy="658" grid="1" gridSize="10" guides="1" tooltips="1" connect="1" arrows="1" fold="1" page="1" pageScale="1" pageWidth="827" pageHeight="1169" math="0" shadow="0">
            <root>
                <mxCell id="0"/>
                <mxCell id="1" parent="0"/>
                <mxCell id="3" value="&lt;font style=&quot;font-size: 19px;&quot;&gt;&amp;gt; bun run blowUp.ts&lt;br&gt;String before changes: 3xy2a&lt;br&gt;String after changes: xxxyaa&lt;br&gt;&lt;br&gt;Done.&lt;br&gt;&amp;gt;&lt;br&gt;&lt;/font&gt;" style="rounded=0;whiteSpace=wrap;html=1;align=left;horizontal=1;verticalAlign=top;" vertex="1" parent="1">
                    <mxGeometry x="160" y="240" width="430" height="290" as="geometry"/>
                </mxCell>
            </root>
        </mxGraphModel>
    </diagram>
</mxfile>